<svg xmlns="http://www.w3.org/2000/svg" width="1200" height="630" viewBox="0 0 1200 630">
<rect width="1200" height="630" fill="#07111f"/>
<circle cx="980" cy="120" r="300" fill="#3b82f6" opacity=".10"/>
<g stroke="#3b82f6" opacity=".08">
  <path d="M0 90H1200M0 180H1200M0 270H1200M0 360H1200M0 450H1200M0 540H1200"/>
  <path d="M100 0V630M200 0V630M300 0V630M400 0V630M500 0V630M600 0V630M700 0V630M800 0V630M900 0V630M1000 0V630M1100 0V630"/>
</g>
<text x="90" y="180" font-family="Arial, sans-serif" font-size="32" font-weight="700" fill="#3b82f6">JORGE PINTO</text>
<text x="90" y="300" font-family="Arial, sans-serif" font-size="72" font-weight="700" fill="#f5f7fa">Tecnologia aplicada</text>
<text x="90" y="385" font-family="Arial, sans-serif" font-size="72" font-weight="700" fill="#f5f7fa">a problemas reais.</text>
<text x="90" y="485" font-family="Arial, sans-serif" font-size="27" fill="#94a3b8">Cibersegurança · Sistemas · Cloud · Automação</text>
</svg>